<svg width="72" height="51" viewBox="0 0 72 51" fill="none" xmlns="http://www.w3.org/2000/svg">
<path d="M40.3166 4.40073C38.22 4.40073 36.3181 5.65495 35.6741 7.45232C33.9969 12.1845 33.1433 17.2278 33.1433 22.4418C33.1433 27.6559 33.9969 32.6993 35.6741 37.4315C36.3181 39.2289 38.22 40.4831 40.3166 40.4831C40.691 40.4771 40.9756 40.4516 41.3051 40.3917C56.6702 37.5019 66.9884 30.2868 66.9884 22.4418C66.9884 14.5953 56.6702 7.38344 41.3051 4.49207C40.9756 4.43071 40.6461 4.40073 40.3166 4.40073ZM40.3166 44.6106C36.4529 44.6091 33.0235 42.2819 31.7955 38.8158C29.9385 33.6377 29.0099 28.1288 29.0099 22.4418C29.0099 16.7549 29.9385 11.246 31.7955 6.06639C33.0235 2.60183 36.4529 0.273178 40.3166 0.273178C40.9007 0.273178 41.4847 0.328528 42.0688 0.436282C59.7102 3.75717 71.1067 12.3954 71.1067 22.4418C71.1067 32.4898 59.7102 41.1265 42.0688 44.4474C41.4847 44.5551 40.9007 44.6106 40.3166 44.6106Z" fill="#102FFC"/>
<path d="M28.8452 5.8194H1.814V2.51803H28.8452V5.8194Z" fill="#102FFC"/>
<path d="M25.8351 14.9232H0.541105V11.6217H25.8351V14.9232Z" fill="#102FFC"/>
<path d="M24.8915 24.0265H0.10675V20.725H24.8915V24.0265Z" fill="#102FFC"/>
<path d="M25.8803 33.1287H0.51149V29.8288H25.8803V33.1287Z" fill="#102FFC"/>
<path d="M28.9498 42.2325H1.73887V38.9311H28.9498V42.2325Z" fill="#102FFC"/>
</svg>
