<svg width="1008" height="92" viewBox="0 0 1008 92" fill="none" xmlns="http://www.w3.org/2000/svg">
<path d="M33.6296 30V8.10311H36.012L44.1304 27.39H44.2215L52.3399 8.10311H54.7223V30H52.7799V12.003H52.6737L45.0712 30H43.2655L35.6782 12.003H35.572V30H33.6296ZM62.7496 30.2883C59.6388 30.2883 57.5144 28.4218 57.5144 25.6297V25.5994C57.5144 22.9135 59.5478 21.2898 63.1745 21.047L68.091 20.7435V19.3778C68.091 17.1016 66.6495 15.7207 64.1912 15.7207C61.8998 15.7207 60.3975 16.8285 60.0637 18.6191L60.0334 18.7708H58.091L58.1062 18.5887C58.4097 15.8725 60.6555 13.9301 64.2215 13.9301C67.8331 13.9301 70.0941 15.9635 70.0941 19.1957V30H68.091V27.1168H68.0303C67.1654 28.9985 65.0865 30.2883 62.7496 30.2883ZM59.5629 25.6297C59.5629 27.3596 61.0197 28.5281 63.1593 28.5281C65.9211 28.5281 68.091 26.5857 68.091 24.0667V22.3217L63.4173 22.6403C60.9438 22.7921 59.5629 23.8695 59.5629 25.5994V25.6297ZM72.0668 30L77.6207 22.0637L72.1275 14.2185H74.4037L78.7284 20.5462H78.7891L83.0835 14.2185H85.3597L79.8362 21.9878L85.299 30H83.038L78.7132 23.5205H78.6677L74.3278 30H72.0668ZM99.2141 30.2883C95.6329 30.2883 93.3415 28.3763 93.038 25.5842L93.0228 25.4476H95.0259L95.0562 25.5842C95.3749 27.4052 96.8468 28.5888 99.2292 28.5888C101.612 28.5888 103.129 27.4962 103.129 25.8422V25.827C103.129 24.4613 102.37 23.7177 100.261 23.217L97.8787 22.6403C94.9045 21.9271 93.4781 20.6221 93.4781 18.437V18.4218C93.4781 15.7966 95.7998 13.9301 99.0927 13.9301C102.461 13.9301 104.616 15.8877 104.874 18.6039L104.889 18.7708H102.962L102.947 18.6646C102.689 16.8285 101.293 15.6297 99.0927 15.6297C96.9531 15.6297 95.5266 16.7374 95.5266 18.3459V18.3611C95.5266 19.6206 96.3764 20.4249 98.4553 20.9256L100.838 21.4871C103.979 22.2458 105.178 23.4749 105.178 25.6904V25.7056C105.178 28.3915 102.674 30.2883 99.2141 30.2883ZM107.879 35.3111V14.2185H109.882V17.5569H109.942C110.823 15.4172 112.765 13.9301 115.299 13.9301C119.305 13.9301 121.991 17.1775 121.991 22.1092V22.1244C121.991 27.0713 119.29 30.2883 115.329 30.2883C112.81 30.2883 110.807 28.8164 109.942 26.7071H109.882V35.3111H107.879ZM114.95 28.4977C117.985 28.4977 119.943 25.9939 119.943 22.1244V22.1092C119.943 18.2094 117.985 15.7207 114.95 15.7207C111.976 15.7207 109.882 18.2852 109.882 22.1092V22.1244C109.882 25.9332 111.991 28.4977 114.95 28.4977ZM131.081 30.2883C126.65 30.2883 123.903 27.1472 123.903 22.1548V22.1396C123.903 17.1927 126.695 13.9301 130.914 13.9301C135.132 13.9301 137.788 17.0865 137.788 21.8057V22.5948H125.936C125.997 26.3581 128.015 28.4977 131.126 28.4977C133.448 28.4977 135.056 27.3293 135.572 25.6146L135.603 25.478H137.591L137.56 25.6297C137.014 28.3308 134.495 30.2883 131.081 30.2883ZM130.899 15.7207C128.213 15.7207 126.21 17.6479 125.967 21.0015H135.77C135.542 17.5569 133.6 15.7207 130.899 15.7207ZM146.862 30.2883C142.431 30.2883 139.685 27.1472 139.685 22.1548V22.1396C139.685 17.1927 142.477 13.9301 146.695 13.9301C150.914 13.9301 153.569 17.0865 153.569 21.8057V22.5948H141.718C141.779 26.3581 143.797 28.4977 146.908 28.4977C149.229 28.4977 150.838 27.3293 151.354 25.6146L151.384 25.478H153.372L153.342 25.6297C152.795 28.3308 150.276 30.2883 146.862 30.2883ZM146.68 15.7207C143.994 15.7207 141.991 17.6479 141.748 21.0015H151.551C151.323 17.5569 149.381 15.7207 146.68 15.7207ZM162.143 30.2883C158.167 30.2883 155.466 27.041 155.466 22.1092V22.0941C155.466 17.1623 158.182 13.9301 162.128 13.9301C164.601 13.9301 166.635 15.3262 167.53 17.5113H167.575V8.10311H169.594V30H167.575V26.7223H167.515C166.604 28.8923 164.632 30.2883 162.143 30.2883ZM162.522 28.4977C165.497 28.4977 167.591 25.918 167.591 22.1092V22.0941C167.591 18.3004 165.466 15.7207 162.522 15.7207C159.487 15.7207 157.53 18.2245 157.53 22.0941V22.1092C157.53 26.0091 159.487 28.4977 162.522 28.4977Z" fill="white"/>
<path d="M33.1289 63V59.8589L40.8679 52.6206C43.6904 49.9802 44.2822 48.9028 44.2822 47.3854V47.355C44.267 45.5644 42.9013 44.2898 40.9589 44.2898C38.7131 44.2898 37.1956 45.7617 37.1349 47.7344L37.1198 47.871H32.8709V47.7496C32.8709 43.6221 36.3003 40.7237 40.9286 40.7237C45.5568 40.7237 48.7435 43.3641 48.7435 47.0971V47.1274C48.7435 49.783 47.484 51.5129 43.7055 54.9878L39.1228 59.176V59.3581H49.047V63H33.1289ZM60.0334 63.3794C55.0713 63.3794 51.8239 60.7693 51.5204 56.9909L51.5053 56.7936H55.8755L55.9059 56.9605C56.1031 58.5235 57.6509 59.6919 60.0182 59.6919C62.3702 59.6919 63.8877 58.4325 63.8877 56.6419V56.6115C63.8877 54.5174 62.3247 53.3642 59.6843 53.3642H57.1805V50.1016H59.6236C61.915 50.1016 63.4021 48.8877 63.4021 47.1122V47.0819C63.4021 45.3065 62.1426 44.2442 59.9878 44.2442C57.8482 44.2442 56.3915 45.352 56.2094 47.0515L56.1942 47.1881H51.9908L52.006 47.006C52.3095 43.2124 55.3899 40.7237 59.9878 40.7237C64.7071 40.7237 67.742 43.0303 67.742 46.4749V46.5053C67.742 49.2367 65.739 51.0121 63.1745 51.5432V51.6343C66.4218 51.9377 68.5463 53.8194 68.5463 56.7936V56.824C68.5463 60.739 65.1472 63.3794 60.0334 63.3794ZM81.8999 63V58.9787H71.0046V55.1548L79.7906 41.1031H86.255V55.3217H89.1382V58.9787H86.255V63H81.8999ZM74.9955 55.4431H81.9909V44.4112H81.8847L74.9955 55.3217V55.4431ZM97.7877 63V41.1031H102.219V53.2428H102.31L107.803 46.7329H112.826L106.68 53.7283L113.129 63H108.015L103.357 56.3535L102.219 57.613V63H97.7877ZM114.358 63V46.7329H118.789V49.4643H118.88C119.548 47.613 121.248 46.399 123.433 46.399C125.709 46.399 127.363 47.613 127.909 49.7526H128C128.729 47.704 130.671 46.399 133.053 46.399C136.24 46.399 138.38 48.5993 138.38 51.877V63H133.949V52.9848C133.949 51.1031 133.008 50.0713 131.293 50.0713C129.609 50.0713 128.501 51.3004 128.501 53.1062V63H124.237V52.8482C124.237 51.1031 123.251 50.0713 121.612 50.0713C119.927 50.0713 118.789 51.3459 118.789 53.1821V63H114.358ZM149.169 41.1031L143.691 68.3111H139.745L145.239 41.1031H149.169ZM150.853 63V41.1031H155.284V49.5402H155.375C156.21 47.5219 157.924 46.399 160.368 46.399C163.888 46.399 166.073 48.8573 166.073 52.7875V63H161.642V53.698C161.642 51.4218 160.519 50.0713 158.501 50.0713C156.544 50.0713 155.284 51.5584 155.284 53.6828V63H150.853Z" fill="white"/>
<path d="M254.457 30L262.712 8.10311H264.76L273 30H270.815L268.372 23.2928H259.1L256.657 30H254.457ZM263.713 10.6373L259.753 21.5022H267.719L263.759 10.6373H263.713ZM277.097 30L272.606 14.2185H274.639L278.175 27.7542H278.22L282.15 14.2185H284.184L288.114 27.7542H288.16L291.695 14.2185H293.714L289.237 30H287.113L283.182 16.9044H283.137L279.222 30H277.097ZM302.135 30.2883C297.704 30.2883 294.958 27.1472 294.958 22.1548V22.1396C294.958 17.1927 297.75 13.9301 301.968 13.9301C306.187 13.9301 308.843 17.0865 308.843 21.8057V22.5948H296.991C297.052 26.3581 299.07 28.4977 302.181 28.4977C304.503 28.4977 306.111 27.3293 306.627 25.6146L306.657 25.478H308.645L308.615 25.6297C308.069 28.3308 305.55 30.2883 302.135 30.2883ZM301.953 15.7207C299.267 15.7207 297.264 17.6479 297.022 21.0015H306.824C306.597 17.5569 304.654 15.7207 301.953 15.7207ZM311.528 30V14.2185H313.531V17.0561H313.592C314.154 15.1289 315.55 13.9301 317.462 13.9301C317.993 13.9301 318.463 14.0364 318.706 14.1122V16.0698C318.448 15.9635 317.887 15.8573 317.204 15.8573C314.958 15.8573 313.531 17.5569 313.531 20.2276V30H311.528ZM325.064 30.2883C321.953 30.2883 319.829 28.4218 319.829 25.6297V25.5994C319.829 22.9135 321.862 21.2898 325.489 21.047L330.406 20.7435V19.3778C330.406 17.1016 328.964 15.7207 326.506 15.7207C324.214 15.7207 322.712 16.8285 322.378 18.6191L322.348 18.7708H320.406L320.421 18.5887C320.724 15.8725 322.97 13.9301 326.536 13.9301C330.148 13.9301 332.409 15.9635 332.409 19.1957V30H330.406V27.1168H330.345C329.48 28.9985 327.401 30.2883 325.064 30.2883ZM321.877 25.6297C321.877 27.3596 323.334 28.5281 325.474 28.5281C328.236 28.5281 330.406 26.5857 330.406 24.0667V22.3217L325.732 22.6403C323.258 22.7921 321.877 23.8695 321.877 25.5994V25.6297ZM342.333 35.5994C338.585 35.5994 336.278 33.8088 335.717 31.5782L335.686 31.4568H337.705L337.765 31.5933C338.296 32.868 339.905 33.8088 342.318 33.8088C345.337 33.8088 347.098 32.1093 347.098 29.4234V26.6464H347.052C346.217 28.7102 344.214 30.1821 341.68 30.1821C337.705 30.1821 334.988 26.9651 334.988 22.0485V22.0334C334.988 17.1471 337.735 13.9301 341.711 13.9301C344.23 13.9301 346.187 15.4628 347.052 17.5569H347.098V14.2185H349.116V29.5903C349.116 33.2322 346.506 35.5994 342.333 35.5994ZM342.075 28.3915C345.049 28.3915 347.098 25.8422 347.098 22.0485V22.0334C347.098 18.2549 345.034 15.7207 342.075 15.7207C339.025 15.7207 337.052 18.2245 337.052 22.0334V22.0485C337.052 25.9029 339.025 28.3915 342.075 28.3915ZM358.949 30.2883C354.518 30.2883 351.771 27.1472 351.771 22.1548V22.1396C351.771 17.1927 354.563 13.9301 358.782 13.9301C363.001 13.9301 365.656 17.0865 365.656 21.8057V22.5948H353.805C353.865 26.3581 355.884 28.4977 358.994 28.4977C361.316 28.4977 362.925 27.3293 363.441 25.6146L363.471 25.478H365.459L365.428 25.6297C364.882 28.3308 362.363 30.2883 358.949 30.2883ZM358.767 15.7207C356.081 15.7207 354.078 17.6479 353.835 21.0015H363.638C363.41 17.5569 361.468 15.7207 358.767 15.7207ZM380.133 30.2883C376.551 30.2883 374.26 28.3763 373.957 25.5842L373.941 25.4476H375.944L375.975 25.5842C376.293 27.4052 377.765 28.5888 380.148 28.5888C382.53 28.5888 384.048 27.4962 384.048 25.8422V25.827C384.048 24.4613 383.289 23.7177 381.18 23.217L378.797 22.6403C375.823 21.9271 374.397 20.6221 374.397 18.437V18.4218C374.397 15.7966 376.718 13.9301 380.011 13.9301C383.38 13.9301 385.535 15.8877 385.793 18.6039L385.808 18.7708H383.881L383.866 18.6646C383.608 16.8285 382.212 15.6297 380.011 15.6297C377.872 15.6297 376.445 16.7374 376.445 18.3459V18.3611C376.445 19.6206 377.295 20.4249 379.374 20.9256L381.756 21.4871C384.897 22.2458 386.096 23.4749 386.096 25.6904V25.7056C386.096 28.3915 383.592 30.2883 380.133 30.2883ZM388.797 35.3111V14.2185H390.8V17.5569H390.861C391.741 15.4172 393.684 13.9301 396.218 13.9301C400.224 13.9301 402.91 17.1775 402.91 22.1092V22.1244C402.91 27.0713 400.209 30.2883 396.248 30.2883C393.729 30.2883 391.726 28.8164 390.861 26.7071H390.8V35.3111H388.797ZM395.869 28.4977C398.904 28.4977 400.861 25.9939 400.861 22.1244V22.1092C400.861 18.2094 398.904 15.7207 395.869 15.7207C392.894 15.7207 390.8 18.2852 390.8 22.1092V22.1244C390.8 25.9332 392.91 28.4977 395.869 28.4977ZM411.999 30.2883C407.568 30.2883 404.822 27.1472 404.822 22.1548V22.1396C404.822 17.1927 407.614 13.9301 411.832 13.9301C416.051 13.9301 418.706 17.0865 418.706 21.8057V22.5948H406.855C406.916 26.3581 408.934 28.4977 412.045 28.4977C414.366 28.4977 415.975 27.3293 416.491 25.6146L416.521 25.478H418.509L418.479 25.6297C417.932 28.3308 415.413 30.2883 411.999 30.2883ZM411.817 15.7207C409.131 15.7207 407.128 17.6479 406.885 21.0015H416.688C416.461 17.5569 414.518 15.7207 411.817 15.7207ZM427.781 30.2883C423.35 30.2883 420.603 27.1472 420.603 22.1548V22.1396C420.603 17.1927 423.395 13.9301 427.614 13.9301C431.832 13.9301 434.488 17.0865 434.488 21.8057V22.5948H422.637C422.697 26.3581 424.715 28.4977 427.826 28.4977C430.148 28.4977 431.756 27.3293 432.272 25.6146L432.303 25.478H434.291L434.26 25.6297C433.714 28.3308 431.195 30.2883 427.781 30.2883ZM427.599 15.7207C424.913 15.7207 422.91 17.6479 422.667 21.0015H432.47C432.242 17.5569 430.3 15.7207 427.599 15.7207ZM443.062 30.2883C439.086 30.2883 436.385 27.041 436.385 22.1092V22.0941C436.385 17.1623 439.101 13.9301 443.046 13.9301C445.52 13.9301 447.553 15.3262 448.448 17.5113H448.494V8.10311H450.512V30H448.494V26.7223H448.433C447.523 28.8923 445.55 30.2883 443.062 30.2883ZM443.441 28.4977C446.415 28.4977 448.509 25.918 448.509 22.1092V22.0941C448.509 18.3004 446.385 15.7207 443.441 15.7207C440.406 15.7207 438.448 18.2245 438.448 22.0941V22.1092C438.448 26.0091 440.406 28.4977 443.441 28.4977Z" fill="white"/>
<path d="M264.487 63.3794C259.207 63.3794 255.352 59.6616 255.352 52.2412V52.2109C255.352 45.0333 258.827 40.7237 264.533 40.7237C268.767 40.7237 271.953 43.1669 272.606 46.5508L272.636 46.7025H268.114L268.069 46.566C267.522 45.2458 266.308 44.3505 264.518 44.3505C261.316 44.3505 259.92 47.4006 259.753 51.2701C259.738 51.5736 259.722 51.877 259.722 52.1047H259.814C260.678 50.0713 262.833 48.5842 265.792 48.5842C270.026 48.5842 272.924 51.5887 272.924 55.6859V55.7162C272.924 60.1927 269.358 63.3794 264.487 63.3794ZM260.421 55.8224C260.421 58.0227 262.181 59.7375 264.427 59.7375C266.657 59.7375 268.463 58.0379 268.463 55.8831V55.8528C268.463 53.5766 266.748 51.9681 264.472 51.9681C262.181 51.9681 260.421 53.5614 260.421 55.7921V55.8224ZM286.369 63V58.9787H275.474V55.1548L284.26 41.1031H290.724V55.3217H293.607V58.9787H290.724V63H286.369ZM279.465 55.4431H286.46V44.4112H286.354L279.465 55.3217V55.4431ZM302.257 63V41.1031H306.688V53.2428H306.779L312.272 46.7329H317.295L311.149 53.7283L317.598 63H312.484L307.826 56.3535L306.688 57.613V63H302.257ZM318.827 63V46.7329H323.258V49.4643H323.349C324.017 47.613 325.717 46.399 327.902 46.399C330.178 46.399 331.832 47.613 332.378 49.7526H332.469C333.198 47.704 335.14 46.399 337.522 46.399C340.709 46.399 342.849 48.5993 342.849 51.877V63H338.418V52.9848C338.418 51.1031 337.477 50.0713 335.762 50.0713C334.078 50.0713 332.97 51.3004 332.97 53.1062V63H328.706V52.8482C328.706 51.1031 327.72 50.0713 326.081 50.0713C324.396 50.0713 323.258 51.3459 323.258 53.1821V63H318.827ZM353.638 41.1031L348.16 68.3111H344.214L349.708 41.1031H353.638ZM355.322 63V41.1031H359.753V49.5402H359.844C360.679 47.5219 362.394 46.399 364.837 46.399C368.357 46.399 370.542 48.8573 370.542 52.7875V63H366.111V53.698C366.111 51.4218 364.988 50.0713 362.97 50.0713C361.013 50.0713 359.753 51.5584 359.753 53.6828V63H355.322Z" fill="white"/>
<path d="M516.366 30V8.10311H529.401V9.98476H518.43V18.2094H528.506V20.0607H518.43V30H516.366ZM532.163 30V14.2185H534.166V17.0561H534.226C534.788 15.1289 536.184 13.9301 538.096 13.9301C538.627 13.9301 539.097 14.0364 539.34 14.1122V16.0698C539.082 15.9635 538.521 15.8573 537.838 15.8573C535.592 15.8573 534.166 17.5569 534.166 20.2276V30H532.163ZM547.003 30.2883C542.694 30.2731 539.811 27.1168 539.811 22.1092V22.0789C539.811 17.0713 542.709 13.9301 547.003 13.9301C551.283 13.9301 554.196 17.0561 554.196 22.0789V22.1092C554.196 27.132 551.298 30.2883 547.003 30.2883ZM547.019 28.4977C550.099 28.4977 552.148 26.1001 552.148 22.1092V22.0789C552.148 18.088 550.084 15.7207 547.003 15.7207C543.923 15.7207 541.874 18.1031 541.874 22.0789V22.1092C541.874 26.1153 543.908 28.4825 547.019 28.4977ZM556.867 30V14.2185H558.87V16.9044H558.931C559.72 15.2048 561.495 13.9453 564.044 13.9453C567.535 13.9453 569.598 16.1912 569.598 19.8937V30H567.595V20.2276C567.595 17.2989 566.139 15.7359 563.453 15.7359C560.706 15.7359 558.87 17.7086 558.87 20.6525V30H556.867ZM577.686 30.2883C575.091 30.2883 573.817 29.0592 573.817 26.2974V15.9028H571.495V14.2185H573.817V9.95441H575.881V14.2185H579.007V15.9028H575.881V26.2671C575.881 28.0121 576.624 28.6039 578.096 28.6039C578.46 28.6039 578.779 28.5584 579.007 28.5281V30.1669C578.688 30.2276 578.172 30.2883 577.686 30.2883ZM594.257 30V9.98476H587.034V8.10311H603.574V9.98476H596.336V30H594.257ZM606.533 11.3656C605.79 11.3656 605.198 10.7738 605.198 10.0303C605.198 9.28673 605.79 8.71009 606.533 8.71009C607.262 8.71009 607.853 9.28673 607.853 10.0303C607.853 10.7738 607.262 11.3656 606.533 11.3656ZM605.516 30V14.2185H607.535V30H605.516ZM611.161 30V14.2185H613.164V17.0561H613.225C613.787 15.1289 615.183 13.9301 617.095 13.9301C617.626 13.9301 618.096 14.0364 618.339 14.1122V16.0698C618.081 15.9635 617.52 15.8573 616.837 15.8573C614.591 15.8573 613.164 17.5569 613.164 20.2276V30H611.161ZM625.987 30.2883C621.556 30.2883 618.809 27.1472 618.809 22.1548V22.1396C618.809 17.1927 621.602 13.9301 625.82 13.9301C630.039 13.9301 632.694 17.0865 632.694 21.8057V22.5948H620.843C620.903 26.3581 622.922 28.4977 626.032 28.4977C628.354 28.4977 629.963 27.3293 630.479 25.6146L630.509 25.478H632.497L632.467 25.6297C631.92 28.3308 629.401 30.2883 625.987 30.2883ZM625.805 15.7207C623.119 15.7207 621.116 17.6479 620.873 21.0015H630.676C630.448 17.5569 628.506 15.7207 625.805 15.7207Z" fill="white"/>
<path d="M521.343 63V45.3065H521.252L515.668 49.1001V45.0333L521.328 41.1031H525.88V63H521.343ZM532.603 63.258C531.222 63.258 530.144 62.1654 530.144 60.7997C530.144 59.4188 531.222 58.3414 532.603 58.3414C533.968 58.3414 535.061 59.4188 535.061 60.7997C535.061 62.1654 533.968 63.258 532.603 63.258ZM546.184 63.3794C541.419 63.3794 538.263 60.6024 537.99 56.9454L537.975 56.7177H542.208L542.239 56.824C542.557 58.478 544.09 59.7526 546.199 59.7526C548.597 59.7526 550.281 58.1138 550.281 55.7769V55.7466C550.266 53.44 548.582 51.8163 546.214 51.8163C545.091 51.8163 544.135 52.1502 543.392 52.742C542.952 53.0758 542.603 53.5007 542.345 53.956H538.354L539.355 41.1031H553.331V44.745H542.997L542.466 50.9059H542.557C543.468 49.4339 545.273 48.5386 547.489 48.5386C551.647 48.5386 554.651 51.528 554.651 55.6555V55.6859C554.651 60.2686 551.192 63.3794 546.184 63.3794ZM572.891 63.3338C570.554 63.3338 568.764 62.1502 567.884 60.2231H567.793V63H563.362V41.1031H567.793V49.5553H567.884C568.779 47.5826 570.585 46.399 572.906 46.399C576.988 46.399 579.522 49.5553 579.522 54.8513V54.8664C579.522 60.1472 576.988 63.3338 572.891 63.3338ZM571.419 59.6616C573.62 59.6616 575.016 57.8255 575.016 54.8664V54.8513C575.016 51.877 573.62 50.0713 571.419 50.0713C569.28 50.0713 567.793 51.9226 567.793 54.8513V54.8664C567.793 57.8103 569.264 59.6616 571.419 59.6616ZM586.639 63.258C583.377 63.258 581.176 61.2094 581.176 58.3414V58.3111C581.176 55.352 583.468 53.6221 587.504 53.3642L591.526 53.1214V52.1198C591.526 50.6783 590.585 49.783 588.855 49.783C587.201 49.783 586.199 50.5569 585.987 51.6039L585.956 51.7405H581.905L581.92 51.5584C582.163 48.5538 584.743 46.399 589.037 46.399C593.24 46.399 595.957 48.569 595.957 51.8467V63H591.526V60.5721H591.434C590.509 62.2413 588.779 63.258 586.639 63.258ZM585.562 58.1138C585.562 59.3126 586.548 60.0258 588.081 60.0258C590.069 60.0258 591.526 58.7511 591.526 57.0516V55.8831L588.172 56.0956C586.457 56.2018 585.562 56.9302 585.562 58.0834V58.1138ZM598.825 63V46.7329H603.255V49.5705H603.347C603.832 47.5675 605.152 46.399 607.049 46.399C607.535 46.399 607.99 46.4749 608.324 46.566V50.4658C607.96 50.3141 607.353 50.223 606.715 50.223C604.53 50.223 603.255 51.528 603.255 53.8953V63H598.825Z" fill="white"/>
<path d="M696.366 30V8.10311H704.166C708.02 8.10311 710.554 10.2731 710.554 13.5053V13.5356C710.554 15.9484 708.855 18.088 706.427 18.4825V18.528C709.522 18.8922 711.692 20.956 711.692 23.9757V24.006C711.692 27.7238 709.006 30 704.15 30H696.366ZM703.726 9.93923H698.43V17.83H703.149C706.472 17.83 708.46 16.3277 708.46 13.7329V13.7025C708.46 11.3505 706.7 9.93923 703.726 9.93923ZM703.68 19.6206H698.43V28.1639H703.862C707.641 28.1639 709.568 26.6161 709.568 23.9302V23.8998C709.568 21.1532 707.398 19.6206 703.68 19.6206ZM719.022 30.2883C715.911 30.2883 713.786 28.4218 713.786 25.6297V25.5994C713.786 22.9135 715.82 21.2898 719.446 21.047L724.363 20.7435V19.3778C724.363 17.1016 722.921 15.7207 720.463 15.7207C718.172 15.7207 716.67 16.8285 716.336 18.6191L716.305 18.7708H714.363L714.378 18.5887C714.682 15.8725 716.927 13.9301 720.493 13.9301C724.105 13.9301 726.366 15.9635 726.366 19.1957V30H724.363V27.1168H724.302C723.437 28.9985 721.358 30.2883 719.022 30.2883ZM715.835 25.6297C715.835 27.3596 717.292 28.5281 719.431 28.5281C722.193 28.5281 724.363 26.5857 724.363 24.0667V22.3217L719.689 22.6403C717.216 22.7921 715.835 23.8695 715.835 25.5994V25.6297ZM736.123 30.2883C731.738 30.2883 728.946 27.1168 728.946 22.0941V22.0789C728.946 17.1168 731.783 13.9301 736.108 13.9301C739.78 13.9301 742.163 16.3125 742.557 19.0288L742.572 19.1654H740.6L740.569 19.044C740.129 17.1927 738.566 15.7207 736.108 15.7207C733.028 15.7207 731.009 18.1942 731.009 22.1092V22.1244C731.009 26.1001 733.058 28.4977 736.123 28.4977C738.475 28.4977 740.099 27.1472 740.569 25.1745L740.6 25.0531H742.588L742.572 25.1745C742.102 28.1184 739.568 30.2883 736.123 30.2883ZM745.289 30V8.10311H747.292V21.654H747.352L755.091 14.2185H757.58L750.494 21.0167L757.732 30H755.365L749.052 22.2458L747.292 23.8847V30H745.289ZM772.072 30V9.98476H764.849V8.10311H781.389V9.98476H774.151V30H772.072ZM784.348 11.3656C783.604 11.3656 783.013 10.7738 783.013 10.0303C783.013 9.28673 783.604 8.71009 784.348 8.71009C785.076 8.71009 785.668 9.28673 785.668 10.0303C785.668 10.7738 785.076 11.3656 784.348 11.3656ZM783.331 30V14.2185H785.35V30H783.331ZM788.976 30V14.2185H790.979V17.0561H791.04C791.601 15.1289 792.998 13.9301 794.91 13.9301C795.441 13.9301 795.911 14.0364 796.154 14.1122V16.0698C795.896 15.9635 795.334 15.8573 794.652 15.8573C792.406 15.8573 790.979 17.5569 790.979 20.2276V30H788.976ZM803.802 30.2883C799.371 30.2883 796.624 27.1472 796.624 22.1548V22.1396C796.624 17.1927 799.416 13.9301 803.635 13.9301C807.853 13.9301 810.509 17.0865 810.509 21.8057V22.5948H798.658C798.718 26.3581 800.737 28.4977 803.847 28.4977C806.169 28.4977 807.778 27.3293 808.293 25.6146L808.324 25.478H810.312L810.281 25.6297C809.735 28.3308 807.216 30.2883 803.802 30.2883ZM803.62 15.7207C800.934 15.7207 798.931 17.6479 798.688 21.0015H808.491C808.263 17.5569 806.321 15.7207 803.62 15.7207Z" fill="white"/>
<path d="M695.865 63V59.8589L703.604 52.6206C706.427 49.9802 707.018 48.9028 707.018 47.3854V47.355C707.003 45.5644 705.638 44.2898 703.695 44.2898C701.449 44.2898 699.932 45.7617 699.871 47.7344L699.856 47.871H695.607V47.7496C695.607 43.6221 699.037 40.7237 703.665 40.7237C708.293 40.7237 711.48 43.3641 711.48 47.0971V47.1274C711.48 49.783 710.22 51.5129 706.442 54.9878L701.859 59.176V59.3581H711.783V63H695.865ZM716.821 63.258C715.44 63.258 714.363 62.1654 714.363 60.7997C714.363 59.4188 715.44 58.3414 716.821 58.3414C718.187 58.3414 719.28 59.4188 719.28 60.7997C719.28 62.1654 718.187 63.258 716.821 63.258ZM730.66 63.3794C725.44 63.3794 721.829 60.7845 721.829 57.0212V56.9909C721.829 54.1532 723.938 52.0591 726.882 51.4825V51.3915C724.348 50.7693 722.633 48.9332 722.633 46.5963V46.566C722.633 43.182 725.926 40.7237 730.66 40.7237C735.38 40.7237 738.688 43.182 738.688 46.566V46.5963C738.688 48.9332 736.958 50.7693 734.439 51.3915V51.4825C737.368 52.0591 739.477 54.1532 739.477 56.9909V57.0212C739.477 60.7845 735.881 63.3794 730.66 63.3794ZM730.66 50.0106C732.724 50.0106 734.151 48.7814 734.151 47.0212V46.9908C734.151 45.2458 732.709 44.0318 730.66 44.0318C728.612 44.0318 727.155 45.2458 727.155 46.9908V47.0212C727.155 48.7814 728.597 50.0106 730.66 50.0106ZM730.66 60.041C733.043 60.041 734.727 58.6449 734.727 56.7177V56.6874C734.727 54.745 733.073 53.3338 730.66 53.3338C728.248 53.3338 726.578 54.745 726.578 56.6874V56.7177C726.578 58.6449 728.263 60.041 730.66 60.041ZM757.99 63.3338C755.653 63.3338 753.862 62.1502 752.982 60.2231H752.891V63H748.46V41.1031H752.891V49.5553H752.982C753.878 47.5826 755.683 46.399 758.005 46.399C762.087 46.399 764.621 49.5553 764.621 54.8513V54.8664C764.621 60.1472 762.087 63.3338 757.99 63.3338ZM756.518 59.6616C758.718 59.6616 760.114 57.8255 760.114 54.8664V54.8513C760.114 51.877 758.718 50.0713 756.518 50.0713C754.378 50.0713 752.891 51.9226 752.891 54.8513V54.8664C752.891 57.8103 754.363 59.6616 756.518 59.6616ZM771.738 63.258C768.475 63.258 766.275 61.2094 766.275 58.3414V58.3111C766.275 55.352 768.567 53.6221 772.603 53.3642L776.624 53.1214V52.1198C776.624 50.6783 775.683 49.783 773.953 49.783C772.299 49.783 771.298 50.5569 771.085 51.6039L771.055 51.7405H767.004L767.019 51.5584C767.261 48.5538 769.841 46.399 774.136 46.399C778.339 46.399 781.055 48.569 781.055 51.8467V63H776.624V60.5721H776.533C775.607 62.2413 773.878 63.258 771.738 63.258ZM770.661 58.1138C770.661 59.3126 771.647 60.0258 773.18 60.0258C775.167 60.0258 776.624 58.7511 776.624 57.0516V55.8831L773.271 56.0956C771.556 56.2018 770.661 56.9302 770.661 58.0834V58.1138ZM783.923 63V46.7329H788.354V49.5705H788.445C788.931 47.5675 790.251 46.399 792.148 46.399C792.633 46.399 793.089 46.4749 793.422 46.566V50.4658C793.058 50.3141 792.451 50.223 791.814 50.223C789.629 50.223 788.354 51.528 788.354 53.8953V63H783.923Z" fill="white"/>
<path d="M876.366 30V8.10311H884.166C888.02 8.10311 890.554 10.2731 890.554 13.5053V13.5356C890.554 15.9484 888.855 18.088 886.427 18.4825V18.528C889.522 18.8922 891.692 20.956 891.692 23.9757V24.006C891.692 27.7238 889.006 30 884.15 30H876.366ZM883.726 9.93923H878.43V17.83H883.149C886.472 17.83 888.46 16.3277 888.46 13.7329V13.7025C888.46 11.3505 886.7 9.93923 883.726 9.93923ZM883.68 19.6206H878.43V28.1639H883.862C887.641 28.1639 889.568 26.6161 889.568 23.9302V23.8998C889.568 21.1532 887.398 19.6206 883.68 19.6206ZM899.022 30.2883C895.911 30.2883 893.786 28.4218 893.786 25.6297V25.5994C893.786 22.9135 895.82 21.2898 899.446 21.047L904.363 20.7435V19.3778C904.363 17.1016 902.921 15.7207 900.463 15.7207C898.172 15.7207 896.67 16.8285 896.336 18.6191L896.305 18.7708H894.363L894.378 18.5887C894.682 15.8725 896.927 13.9301 900.493 13.9301C904.105 13.9301 906.366 15.9635 906.366 19.1957V30H904.363V27.1168H904.302C903.437 28.9985 901.358 30.2883 899.022 30.2883ZM895.835 25.6297C895.835 27.3596 897.292 28.5281 899.431 28.5281C902.193 28.5281 904.363 26.5857 904.363 24.0667V22.3217L899.689 22.6403C897.216 22.7921 895.835 23.8695 895.835 25.5994V25.6297ZM914.439 30.2883C911.844 30.2883 910.569 29.0592 910.569 26.2974V15.9028H908.248V14.2185H910.569V9.95441H912.633V14.2185H915.759V15.9028H912.633V26.2671C912.633 28.0121 913.377 28.6039 914.849 28.6039C915.213 28.6039 915.531 28.5584 915.759 28.5281V30.1669C915.44 30.2276 914.925 30.2883 914.439 30.2883ZM923.271 30.2883C920.676 30.2883 919.401 29.0592 919.401 26.2974V15.9028H917.079V14.2185H919.401V9.95441H921.465V14.2185H924.591V15.9028H921.465V26.2671C921.465 28.0121 922.208 28.6039 923.68 28.6039C924.044 28.6039 924.363 28.5584 924.591 28.5281V30.1669C924.272 30.2276 923.756 30.2883 923.271 30.2883ZM933.24 30.2883C928.809 30.2883 926.063 27.1472 926.063 22.1548V22.1396C926.063 17.1927 928.855 13.9301 933.073 13.9301C937.292 13.9301 939.947 17.0865 939.947 21.8057V22.5948H928.096C928.157 26.3581 930.175 28.4977 933.286 28.4977C935.607 28.4977 937.216 27.3293 937.732 25.6146L937.762 25.478H939.75L939.72 25.6297C939.173 28.3308 936.654 30.2883 933.24 30.2883ZM933.058 15.7207C930.372 15.7207 928.369 17.6479 928.126 21.0015H937.929C937.702 17.5569 935.759 15.7207 933.058 15.7207ZM942.633 30V14.2185H944.636V17.0561H944.697C945.258 15.1289 946.655 13.9301 948.567 13.9301C949.098 13.9301 949.568 14.0364 949.811 14.1122V16.0698C949.553 15.9635 948.991 15.8573 948.309 15.8573C946.063 15.8573 944.636 17.5569 944.636 20.2276V30H942.633ZM953.513 35.3111C953.119 35.3111 952.694 35.2656 952.406 35.22V33.566C952.603 33.5964 952.861 33.6267 953.119 33.6267C954.894 33.6267 955.82 33.0501 956.518 31.1229L956.897 30.1062L950.964 14.2185H953.119L957.899 27.997H957.96L962.755 14.2185H964.879L958.551 31.2595C957.504 34.0668 956.214 35.3111 953.513 35.3111Z" fill="white"/>
<path d="M881.343 63V45.3065H881.252L875.668 49.1001V45.0333L881.328 41.1031H885.88V63H881.343ZM890.797 63V59.8589L898.536 52.6206C901.358 49.9802 901.95 48.9028 901.95 47.3854V47.355C901.935 45.5644 900.569 44.2898 898.627 44.2898C896.381 44.2898 894.864 45.7617 894.803 47.7344L894.788 47.871H890.539V47.7496C890.539 43.6221 893.968 40.7237 898.597 40.7237C903.225 40.7237 906.412 43.3641 906.412 47.0971V47.1274C906.412 49.783 905.152 51.5129 901.374 54.9878L896.791 59.176V59.3581H906.715V63H890.797ZM911.753 63.258C910.372 63.258 909.295 62.1654 909.295 60.7997C909.295 59.4188 910.372 58.3414 911.753 58.3414C913.119 58.3414 914.211 59.4188 914.211 60.7997C914.211 62.1654 913.119 63.258 911.753 63.258ZM921.313 63V45.3065H921.222L915.638 49.1001V45.0333L921.298 41.1031H925.85V63H921.313ZM943.134 63L935.805 41.1031H940.873L945.881 58.3111H945.972L950.964 41.1031H956.048L948.718 63H943.134Z" fill="white"/>
<path d="M503 33.8455C503 32.0921 502.489 30.3696 501.525 28.8634L498.786 24.591L498.881 23.8261C498.992 22.9273 498.3 22.1144 497.334 22.0112C496.366 21.9071 495.495 22.5516 495.384 23.4505L495.22 24.7666C495.176 25.1232 495.259 25.4844 495.457 25.7939L498.501 30.5416C499.141 31.5409 499.479 32.6832 499.479 33.8455V38.7235C499.479 42.9515 495.783 46.3912 491.24 46.3912H485.983H480.727C476.184 46.3912 472.489 42.9515 472.489 38.7235V33.8455C472.489 32.6832 472.827 31.5409 473.467 30.5416L476.51 25.7939C476.709 25.4844 476.791 25.1232 476.748 24.7666L476.584 23.4505C476.472 22.5516 475.601 21.9062 474.633 22.0112C473.667 22.1144 472.975 22.9273 473.087 23.8261L473.182 24.591L470.443 28.8634C469.478 30.3696 468.968 32.0921 468.968 33.8455V38.7235C468.968 41.4879 470.083 44.0079 471.906 45.9368L474.624 50.9849C474.881 51.4629 475.4 51.739 475.936 51.739C476.158 51.739 476.382 51.6919 476.593 51.5941C477.318 51.2565 477.61 50.4355 477.247 49.762L476.863 49.0488C477.781 49.3466 478.746 49.5448 479.75 49.6217V50.373C479.75 51.127 480.407 51.738 481.217 51.738C482.027 51.738 482.684 51.127 482.684 50.373V49.6679H484.664V50.373C484.664 51.127 485.32 51.738 486.13 51.738C486.94 51.738 487.598 51.127 487.598 50.373V49.6679H489.283V50.373C489.283 51.127 489.941 51.738 490.751 51.738C491.561 51.738 492.218 51.127 492.218 50.373V49.6217C493.221 49.5448 494.187 49.3466 495.104 49.0488L494.72 49.762C494.357 50.4355 494.65 51.2565 495.375 51.5941C495.586 51.6919 495.81 51.739 496.031 51.739C496.568 51.739 497.086 51.4629 497.343 50.9849L500.062 45.9368C501.884 44.0079 503 41.4879 503 38.7235V33.8455Z" fill="#FCCA10"/>
<path d="M486.13 38.8177C487.265 38.8177 488.184 37.9623 488.184 36.906V28.3738C488.184 27.3183 487.265 26.4621 486.13 26.4621C484.996 26.4621 484.077 27.3183 484.077 28.3738V36.906C484.077 37.9623 484.996 38.8177 486.13 38.8177Z" fill="#FCCA10"/>
</svg>
