<svg width="1560" height="720" viewBox="0 0 1560 720" fill="none" xmlns="http://www.w3.org/2000/svg">
<path d="M1248.07 95.8831H635.946C378.847 95.8831 170.427 304.303 170.427 561.403" stroke="url(#paint0_linear_22_34)" stroke-width="58.3636" stroke-miterlimit="4.13357"/>
<path d="M128.738 560.013V560.013C128.738 280.657 355.201 54.1948 634.557 54.1948H1291.5" stroke="url(#paint1_radial_22_34)" stroke-width="1.38961"/>
<path d="M107.784 559V536.999H107.716L101.151 541.409V539.051L107.75 534.522H110.023V559H107.784Z" fill="white" fill-opacity="0.24"/>
<path d="M109.964 438.104V436.475L118.615 427.383C122.126 423.736 122.991 422.26 122.991 420.123V420.089C122.974 417.324 120.803 415.272 117.818 415.272C114.544 415.272 112.169 417.494 112.101 420.361L112.084 420.496H109.845V420.344C109.913 416.256 113.356 413.236 117.767 413.236C122.126 413.236 125.298 416.188 125.298 419.987V420.021C125.298 422.651 124.077 424.652 119.734 429.13L113.187 435.95V436.034H125.926V438.104H109.964Z" fill="white" fill-opacity="0.24"/>
<path d="M155.405 327.325C150.486 327.325 147.331 324.543 146.957 320.777L146.94 320.591H149.18L149.197 320.744C149.536 323.39 151.843 325.29 155.405 325.29C158.933 325.29 161.427 323.22 161.427 320.319V320.286C161.427 317.08 159.018 315.248 155.134 315.248H152.182V313.263H155.032C158.289 313.263 160.562 311.329 160.562 308.632V308.598C160.562 305.85 158.543 304.103 155.32 304.103C152.165 304.103 149.977 305.884 149.705 308.479L149.688 308.649H147.449L147.466 308.479C147.839 304.713 150.859 302.067 155.32 302.067C159.832 302.067 162.903 304.68 162.903 308.327V308.361C162.903 311.38 160.799 313.5 157.678 314.128V314.196C161.325 314.484 163.785 316.757 163.785 320.235V320.269C163.785 324.323 160.239 327.325 155.405 327.325Z" fill="white" fill-opacity="0.24"/>
<path d="M213.298 240.779V235.249H200.881V233.129L212.161 216.302H215.554V233.197H219.201V235.249H215.554V240.779H213.298ZM203.222 233.197H213.298V218.388H213.213L203.222 233.129V233.197Z" fill="white" fill-opacity="0.24"/>
<path d="M282.131 166.13C277.653 166.13 274.311 163.298 273.938 159.532L273.921 159.362H276.194L276.211 159.481C276.55 162.076 279.01 164.078 282.165 164.078C285.795 164.078 288.407 161.499 288.407 157.92V157.886C288.39 154.358 285.795 151.746 282.267 151.746C280.333 151.746 278.62 152.458 277.415 153.747C277.059 154.104 276.72 154.511 276.448 154.986H274.362L275.685 141.263H289.255V143.332H277.602L276.635 152.543H276.703C277.924 150.762 280.146 149.744 282.64 149.744C287.305 149.744 290.731 153.171 290.731 157.835V157.869C290.714 162.687 287.118 166.13 282.131 166.13Z" fill="white" fill-opacity="0.24"/>
<path d="M385.369 99.4291C380.62 99.4291 376.243 95.9856 376.243 87.4871V87.4532C376.243 79.1074 379.738 74.1711 385.539 74.1711C389.661 74.1711 392.663 76.5969 393.393 80.0573L393.427 80.2609H391.086L391.018 80.0743C390.356 77.7673 388.304 76.2406 385.522 76.2406C380.654 76.2406 378.601 81.0751 378.499 86.9104C378.482 87.1479 378.482 87.3853 378.482 87.6228H378.55C379.466 85.0275 382.231 83.0089 385.742 83.0089C390.39 83.0089 393.868 86.4693 393.868 91.1002V91.1342C393.868 95.9177 390.255 99.4291 385.369 99.4291ZM379.144 90.9815C379.144 94.5098 381.79 97.3596 385.352 97.3596C388.796 97.3596 391.51 94.6455 391.51 91.1681V91.1342C391.51 87.6398 388.898 85.0614 385.369 85.0614C381.909 85.0614 379.144 87.6567 379.144 90.9645V90.9815Z" fill="white" fill-opacity="0.24"/>
<path d="M482.618 61.5194L493.966 39.1791V39.1113H480.328V37.0418H496.273V39.2131L485.078 61.5194H482.618Z" fill="white" fill-opacity="0.24"/>
<path d="M590.641 41.0654C585.519 41.0654 581.905 38.1478 581.905 34.0428V34.0088C581.905 30.9385 584.128 28.428 587.351 27.7325V27.6816C584.586 26.9013 582.788 24.8658 582.788 22.2195V22.1856C582.788 18.5046 586.078 15.8075 590.641 15.8075C595.204 15.8075 598.478 18.5046 598.478 22.1856V22.2195C598.478 24.8658 596.68 26.9013 593.915 27.6816V27.7325C597.138 28.428 599.36 30.9385 599.36 34.0088V34.0428C599.36 38.1478 595.764 41.0654 590.641 41.0654ZM590.641 26.7995C593.898 26.7995 596.171 24.9675 596.171 22.4061V22.3722C596.171 19.7599 593.915 17.8261 590.641 17.8261C587.351 17.8261 585.094 19.7599 585.094 22.3722V22.4061C585.094 24.9675 587.368 26.7995 590.641 26.7995ZM590.641 39.0299C594.39 39.0299 597.003 36.8756 597.003 33.907V33.8731C597.003 30.9385 594.39 28.869 590.641 28.869C586.876 28.869 584.263 30.9385 584.263 33.8731V33.907C584.263 36.8756 586.893 39.0299 590.641 39.0299Z" fill="white" fill-opacity="0.24"/>
<path d="M693.422 15.8075C698.188 15.8075 702.548 19.251 702.548 27.7495V27.7834C702.548 36.1292 699.053 41.0654 693.252 41.0654C689.13 41.0654 686.145 38.6397 685.398 35.1793L685.364 34.9757H687.705L687.773 35.1623C688.435 37.4693 690.487 38.996 693.286 38.996C698.137 38.996 700.19 34.1615 700.309 28.3262C700.309 28.0887 700.309 27.8512 700.309 27.6138H700.241C699.325 30.2091 696.56 32.2277 693.065 32.2277C688.401 32.2277 684.94 28.7673 684.94 24.1363V24.1024C684.94 19.3189 688.536 15.8075 693.422 15.8075ZM693.422 30.1752C696.882 30.1752 699.664 27.5798 699.664 24.2721V24.2551C699.664 20.7268 697.001 17.877 693.439 17.877C689.995 17.877 687.281 20.5911 687.281 24.0685V24.1024C687.281 27.5968 689.893 30.1752 693.422 30.1752Z" fill="white" fill-opacity="0.24"/>
<path d="M795.641 40.6753V18.6743H795.573L789.008 23.0846V20.7268L795.607 16.1977H797.88V40.6753H795.641ZM812.349 41.0654C806.819 41.0654 803.512 36.1971 803.512 28.4619V28.411C803.512 20.6589 806.819 15.8075 812.349 15.8075C817.879 15.8075 821.204 20.6759 821.204 28.411V28.4619C821.204 36.214 817.879 41.0654 812.349 41.0654ZM812.349 39.0299C816.454 39.0299 818.88 34.9418 818.88 28.4619V28.411C818.88 21.8972 816.454 17.86 812.349 17.86C808.244 17.86 805.836 21.9142 805.836 28.411V28.4619C805.836 34.9588 808.244 39.0299 812.349 39.0299Z" fill="white" fill-opacity="0.5"/>
<path d="M913.758 40.6753V18.6743H913.69L907.125 23.0846V20.7268L913.724 16.1977H915.997V40.6753H913.758ZM928.414 40.6753V18.6743H928.346L921.781 23.0846V20.7268L928.38 16.1977H930.653V40.6753H928.414Z" fill="white" fill-opacity="0.5"/>
<path d="M1026.32 40.6753V18.6743H1026.25L1019.68 23.0846V20.7268L1026.28 16.1977H1028.56V40.6753H1026.32ZM1034.61 40.6753V39.0468L1043.26 29.9547C1046.77 26.3076 1047.64 24.8318 1047.64 22.6945V22.6606C1047.62 19.8956 1045.45 17.8431 1042.46 17.8431C1039.19 17.8431 1036.82 20.0652 1036.75 22.932L1036.73 23.0677H1034.49V22.915C1034.56 18.8269 1038 15.8075 1042.41 15.8075C1046.77 15.8075 1049.95 18.7591 1049.95 22.5588V22.5927C1049.95 25.222 1048.72 27.2236 1044.38 31.7019L1037.83 38.521V38.6058H1050.57V40.6753H1034.61Z" fill="white" fill-opacity="0.5"/>
<path d="M1143.04 40.6753V18.6743H1142.98L1136.41 23.0846V20.7268L1143.01 16.1977H1145.28V40.6753H1143.04ZM1159.4 41.0654C1154.48 41.0654 1151.32 38.2835 1150.95 34.5177L1150.93 34.3311H1153.17L1153.19 34.4838C1153.53 37.13 1155.83 39.0299 1159.4 39.0299C1162.92 39.0299 1165.42 36.9604 1165.42 34.0597V34.0258C1165.42 30.8198 1163.01 28.9878 1159.12 28.9878H1156.17V27.0031H1159.02C1162.28 27.0031 1164.55 25.0693 1164.55 22.3722V22.3383C1164.55 19.5903 1162.53 17.8431 1159.31 17.8431C1156.16 17.8431 1153.97 19.6242 1153.7 22.2195L1153.68 22.3892H1151.44L1151.46 22.2195C1151.83 18.4537 1154.85 15.8075 1159.31 15.8075C1163.82 15.8075 1166.89 18.4198 1166.89 22.0669V22.1008C1166.89 25.1202 1164.79 27.2406 1161.67 27.8682V27.9361C1165.32 28.2244 1167.78 30.4975 1167.78 33.9749V34.0088C1167.78 38.063 1164.23 41.0654 1159.4 41.0654Z" fill="#F71D00"/>
<path d="M1259.77 40.6753V18.6743H1259.7L1253.14 23.0846V20.7268L1259.74 16.1977H1262.01V40.6753H1259.77ZM1279.52 40.6753V35.1453H1267.1V33.025L1278.38 16.1977H1281.77V33.0928H1285.42V35.1453H1281.77V40.6753H1279.52ZM1269.44 33.0928H1279.52V18.2841H1279.43L1269.44 33.025V33.0928Z" fill="#F71D00"/>
<defs>
<linearGradient id="paint0_linear_22_34" x1="990.992" y1="95.883" x2="288.544" y2="576.688" gradientUnits="userSpaceOnUse">
<stop/>
<stop offset="1" stop-color="#181818"/>
</linearGradient>
<radialGradient id="paint1_radial_22_34" cx="0" cy="0" r="1" gradientUnits="userSpaceOnUse" gradientTransform="translate(535.894 307.104) rotate(90) scale(252.909 407.156)">
<stop offset="0.533654" stop-color="white"/>
<stop offset="1" stop-color="#332E2E"/>
</radialGradient>
</defs>
</svg>
