<svg width="85" height="34" viewBox="0 0 85 34" fill="none" xmlns="http://www.w3.org/2000/svg">
<path d="M22.8323 27.275C21.8143 27.4866 20.7812 26.8364 20.4519 25.8233C19.5387 22.967 19.0746 19.9232 19.0746 16.7735C19.0746 13.6253 19.5387 10.5799 20.4519 7.72503C20.7363 6.84499 21.5448 6.22961 22.428 6.22961C22.5628 6.22961 22.6975 6.2447 22.8323 6.27192C30.9912 7.9821 36.4853 12.2024 36.4853 16.7735C36.4853 21.3445 30.9912 25.5648 22.8323 27.275ZM23.5358 2.85006C23.1615 2.77446 22.8023 2.7351 22.428 2.7351C20.0327 2.7351 17.9069 4.30922 17.1583 6.64995C16.1403 9.85257 15.6164 13.2594 15.6164 16.7735C15.6164 20.2891 16.1403 23.6943 17.1583 26.8985C17.9069 29.2392 20.0327 30.8118 22.428 30.8118C22.8023 30.8118 23.1615 30.774 23.5358 30.6969C33.5062 28.6102 39.9436 23.1439 39.9436 16.7735C39.9436 10.403 33.5062 4.93827 23.5358 2.85006Z" fill="#41DE1A"/>
<path d="M12.7421 15.0268H0.436227V18.5214H12.7421V15.0268Z" fill="#41DE1A"/>
<path d="M0.106735 3.69962L12.3977 6.19606L13.0862 2.76962L0.780411 0.273178L0.106735 3.69962Z" fill="#41DE1A"/>
<path d="M0.106735 29.8468L0.780411 33.2732L13.0862 30.7767L12.3977 27.3503L0.106735 29.8468Z" fill="#41DE1A"/>
<path d="M63.7469 25.8233C63.4325 26.8364 62.3846 27.4851 61.3816 27.275C53.2077 25.5648 47.7284 21.3445 47.7284 16.7735C47.7284 12.2024 53.2077 7.9821 61.3816 6.27192C61.5163 6.2447 61.6509 6.22961 61.7857 6.22961C62.654 6.22961 63.4625 6.84499 63.7469 7.72503C64.6601 10.5799 65.1242 13.6253 65.1242 16.7735C65.1242 19.9232 64.6601 22.967 63.7469 25.8233ZM61.7857 2.7351C61.4114 2.7351 61.0372 2.77446 60.6779 2.85006C50.7075 4.93827 44.2701 10.403 44.2701 16.7735C44.2701 23.1439 50.7075 28.6102 60.6779 30.6969C61.0372 30.774 61.4114 30.8118 61.7857 30.8118C64.181 30.8118 66.2919 29.2392 67.0404 26.8985C68.0734 23.6943 68.5824 20.2891 68.5824 16.7735C68.5824 13.2594 68.0734 9.85261 67.0404 6.64847C66.2919 4.30925 64.181 2.7351 61.7857 2.7351Z" fill="#41DE1A"/>
<path d="M71.4715 18.5214H83.7624V15.0268H71.4715V18.5214Z" fill="#41DE1A"/>
<path d="M84.1067 3.69962L83.418 0.273178L71.1272 2.76962L71.8009 6.19606L84.1067 3.69962Z" fill="#41DE1A"/>
<path d="M71.1272 30.7767L83.418 33.2732L84.1067 29.8468L71.8009 27.3503L71.1272 30.7767Z" fill="#41DE1A"/>
</svg>
