<svg width="39" height="41" viewBox="0 0 39 41" fill="none" xmlns="http://www.w3.org/2000/svg">
<path d="M20.7133 3.21732V15.1492H5.83203V3.21732H20.7133ZM38.2413 27.552L35.176 14.8507C34.992 14.088 34.9987 13.2839 35.1974 12.5253C35.2081 12.4839 35.232 12.4133 35.2626 12.3293C35.5613 12.5946 35.944 12.7359 36.3333 12.7359C36.64 12.7359 36.9506 12.6479 37.224 12.4652C37.964 11.9719 38.1627 10.9733 37.6707 10.2333C36.1627 7.97467 34.4253 5.86126 32.5053 3.95326C31.1987 2.65326 29.7893 1.43196 28.3173 0.323959C27.608 -0.210705 26.5987 -0.0693592 26.0654 0.639976C25.5294 1.34931 25.672 2.35857 26.3814 2.89323C27.736 3.91457 29.0334 5.03864 30.2374 6.23464C31.4307 7.4213 32.5413 8.70135 33.568 10.044C33.5546 10.08 33.5387 10.1173 33.5254 10.1507C33.1707 11.0307 32.948 11.5852 32.8626 11.9159C32.564 13.0586 32.5534 14.2693 32.8307 15.4173L35.896 28.1186C36.272 29.6746 35.7387 31.3026 34.5707 32.1693C34.0507 32.5546 33.444 32.804 32.816 32.8906C32.6973 32.9066 32.5787 32.9159 32.4613 32.9212C31.556 32.9519 30.68 32.6173 29.9987 31.9626C29.252 31.2466 28.824 30.2399 28.824 29.2026V17.6626C28.824 15.6106 27.1547 13.9413 25.104 13.9413H23.9307V1.60794C23.9307 0.719944 23.2107 3.43342e-06 22.3227 3.43342e-06H4.22396C3.33596 3.43342e-06 2.61471 0.719944 2.61471 1.60794V37.2026H1.60937C0.721375 37.2026 0 37.9227 0 38.8107C0 39.7 0.721375 40.4199 1.60937 40.4199H24.668C25.5573 40.4199 26.2773 39.7 26.2773 38.8107C26.2773 37.9227 25.5573 37.2026 24.668 37.2026H23.9307V16.3546H25.104C25.824 16.3546 26.412 16.9413 26.412 17.6626V29.2026C26.412 30.8933 27.1094 32.5333 28.3267 33.7026C29.4294 34.7626 30.8414 35.3372 32.3254 35.3372C32.4027 35.3372 32.4801 35.336 32.5587 35.3333C32.7534 35.3253 32.9493 35.3079 33.144 35.2812C34.172 35.1399 35.1627 34.7346 36.0094 34.1066C37.9747 32.648 38.8506 30.076 38.2413 27.552Z" fill="#CB0000"/>
</svg>
