<?xml version="1.0" encoding="UTF-8"?>
<svg id="Layer_1" xmlns="http://www.w3.org/2000/svg" version="1.1" viewBox="0 0 72 51">
  <!-- Generator: Adobe Illustrator 29.8.1, SVG Export Plug-In . SVG Version: 2.1.1 Build 2)  -->
  <defs>
    <style>
      .st0 {
        fill: #41de1a;
      }
    </style>
  </defs>
  <path class="st0" d="M40.32,4.4c-2.1,0-4,1.25-4.64,3.05-1.68,4.73-2.53,9.78-2.53,14.99s.85,10.26,2.53,14.99c.64,1.8,2.55,3.05,4.64,3.05.37,0,.66-.03.99-.09,15.37-2.89,25.68-10.1,25.68-17.95s-10.32-15.06-25.68-17.95c-.33-.06-.66-.09-.99-.09ZM40.32,44.61c-3.86,0-7.29-2.33-8.52-5.79-1.86-5.18-2.79-10.69-2.79-16.37s.93-11.2,2.79-16.38c1.23-3.46,4.66-5.79,8.52-5.79.58,0,1.17.06,1.75.16,17.64,3.32,29.04,11.96,29.04,22.01s-11.4,18.68-29.04,22.01c-.58.11-1.17.16-1.75.16Z"/>
  <path class="st0" d="M2.76,13.84l-.99-3.15L28.14,2.44l.97,3.15L2.76,13.84Z"/>
  <path class="st0" d="M1.51,23.33l-.99-3.15,24.66-7.71.99,3.15L1.51,23.33Z"/>
  <path class="st0" d="M1.1,32.56l-.99-3.15,24.16-7.56.99,3.15L1.1,32.56Z"/>
  <path class="st0" d="M1.48,41.54l-.99-3.15,24.74-7.74.99,3.15L1.48,41.54Z"/>
  <path class="st0" d="M2.68,50.27l-.99-3.15,26.54-8.3.99,3.15L2.68,50.27Z"/>
</svg>