<svg width="1560" height="720" viewBox="0 0 1560 720" fill="none" xmlns="http://www.w3.org/2000/svg">
<g clip-path="url(#clip0_22_34)">
<path d="M312 730C320.602 714.649 329.193 699.292 337.775 683.93C341.414 677.414 345.052 670.898 348.688 664.38C366.976 630.943 404.228 609.41 441.904 610.066C554.52 611.022 667.135 611.5 779.75 611.5C892.365 611.5 1004.98 611.022 1117.6 610.066C1155.27 609.41 1192.52 630.943 1210.81 664.38C1214.45 670.898 1218.09 677.414 1221.73 683.93C1230.31 699.292 1238.9 714.649 1247.5 730C1239.31 714.426 1231.11 698.858 1222.89 683.295C1219.41 676.694 1215.93 670.095 1212.44 663.496C1194.64 629.062 1156.79 605.918 1117.6 605.934C1004.98 604.978 892.365 604.5 779.75 604.5C667.135 604.5 554.52 604.978 441.904 605.934C402.714 605.918 364.864 629.062 347.06 663.496C343.574 670.095 340.089 676.694 336.606 683.295C328.394 698.858 320.192 714.426 312 730Z" fill="url(#paint0_radial_22_34)"/>
<path d="M312 730C320.602 714.649 329.193 699.292 337.775 683.93C341.414 677.414 345.052 670.898 348.688 664.38C366.976 630.943 404.228 609.41 441.904 610.066C554.52 611.022 667.135 611.5 779.75 611.5C892.365 611.5 1004.98 611.022 1117.6 610.066C1155.27 609.41 1192.52 630.943 1210.81 664.38C1214.45 670.898 1218.09 677.414 1221.73 683.93C1230.31 699.292 1238.9 714.649 1247.5 730C1239.31 714.426 1231.11 698.858 1222.89 683.295C1219.41 676.694 1215.93 670.095 1212.44 663.496C1194.64 629.062 1156.79 605.918 1117.6 605.934C1004.98 604.978 892.365 604.5 779.75 604.5C667.135 604.5 554.52 604.978 441.904 605.934C402.714 605.918 364.864 629.062 347.06 663.496C343.574 670.095 340.089 676.694 336.606 683.295C328.394 698.858 320.192 714.426 312 730Z" fill="url(#paint1_radial_22_34)"/>
</g>
<defs>
<radialGradient id="paint0_radial_22_34" cx="0" cy="0" r="1" gradientUnits="userSpaceOnUse" gradientTransform="translate(1210 669) rotate(180) scale(864 3078.31)">
<stop stop-opacity="0"/>
<stop offset="0.115385"/>
<stop offset="0.826923"/>
<stop offset="1" stop-opacity="0"/>
</radialGradient>
<radialGradient id="paint1_radial_22_34" cx="0" cy="0" r="1" gradientUnits="userSpaceOnUse" gradientTransform="translate(779.383 608) rotate(90) scale(171.583 611.325)">
<stop stop-color="#FF5100"/>
<stop offset="1" stop-color="#FF0000" stop-opacity="0"/>
</radialGradient>
<clipPath id="clip0_22_34">
<rect width="1560" height="720" fill="white"/>
</clipPath>
</defs>
</svg>
